# xmcd
#
# Track frame offsets:
#	150
#	16702
#	35312
#	51730
#	71957
#	89197
#	106320
#	123267
#	144520
#	165252
#	185285
#	205955
#	226392
#	246762
#	262060
#	281820
#	304257
#	329527
#
# Disc length: 4662
#
# Revision: 2
# Processed by: cddbd v1.5.1PL0 Copyright (c) Steve Scherf et al.
# Submitted via: CD2WAV32(EN) R3.17
# Normalized: r0:DSETVAR2,TDELIM( - );r1:TSWAP
#
DISCID=0f123412
DTITLE=Various Artist - I LOVE R&B vol4
DYEAR=1900
DGENRE=
TTITLE0=Chante Moore - Straight Up
TTITLE1=Erykah Badu - Bag Lady(Cheeba Sac Radio Edit)
TTITLE2=K-Ci&JoJo - Crazy
TTITLE3=Mary J. Blige - Let No Man Put Asunder(Maurice Joshua Remix)
TTITLE4=Trin-i-tee 5:7 - Put Your Hands
TTITLE5=Mya - Now Or Never
TTITLE6=Kelly Price - Good Love
TTITLE7=Jesse Powell - You(Darkchild Remix)
TTITLE8=Tamer Braxton - Count The Ways
TTITLE9=Avant - Get Away
TTITLE10=Montell Jordan - Get It On Tonight
TTITLE11=Sisqo - Incomplete
TTITLE12=Dave Hollister - One Woman Man
TTITLE13=Monifah - (How)Ya Gonna Love Me
TTITLE14=Bilal - Soul Sista
TTITLE15=Profyle - Liar
TTITLE16=BeBe Winans - Coming Back Home
TTITLE17=BoyZ II Men - Pass You By
EXTD=
EXTT0=
EXTT1=
EXTT2=
EXTT3=
EXTT4=
EXTT5=
EXTT6=
EXTT7=
EXTT8=
EXTT9=
EXTT10=
EXTT11=
EXTT12=
EXTT13=
EXTT14=
EXTT15=
EXTT16=
EXTT17=
PLAYORDER=
